<?xml version="1.0" encoding="utf-8"?>
<!-- Generator: Adobe Illustrator 16.0.0, SVG Export Plug-In . SVG Version: 6.00 Build 0)  -->
<!DOCTYPE svg PUBLIC "-//W3C//DTD SVG 1.1 Tiny//EN" "http://www.w3.org/Graphics/SVG/1.1/DTD/svg11-tiny.dtd">
<svg version="1.1" baseProfile="tiny" id="Layer_1" xmlns="http://www.w3.org/2000/svg" xmlns:xlink="http://www.w3.org/1999/xlink"
	 x="0px" y="0px" width="24px" height="24px" viewBox="0 0 24 24" xml:space="preserve">
<g>
	<g>
		<path d="M1.58,23.271c-0.244,0-0.458-0.081-0.614-0.236c-0.232-0.233-0.297-0.594-0.179-0.991l3.548-11.826
			C4.512,9.625,4.993,8.82,5.43,8.384l7.538-7.539c0.156-0.156,0.41-0.156,0.566,0s0.156,0.409,0,0.565L5.995,8.95
			c-0.344,0.345-0.754,1.03-0.894,1.498l-1.521,5.067c2.376,1.192,3.716,2.533,4.903,4.904l5.068-1.521
			c0.468-0.141,1.153-0.55,1.497-0.895l7.539-7.538c0.156-0.156,0.41-0.156,0.566,0s0.156,0.409,0,0.565l-7.539,7.539
			c-0.437,0.436-1.241,0.917-1.833,1.094L1.955,23.212C1.825,23.251,1.699,23.271,1.58,23.271z M3.347,16.292l-1.794,5.981
			c-0.037,0.121-0.025,0.187-0.018,0.2c0-0.004,0.011-0.001,0.024,0c0.03,0,0.085-0.004,0.166-0.027l5.98-1.795
			C6.633,18.55,5.454,17.371,3.347,16.292z M11.877,18.042c-0.103,0-0.205-0.039-0.283-0.117c-0.156-0.156-0.156-0.41,0-0.566
			l9.254-9.256c0.156-0.156,0.41-0.156,0.566,0s0.156,0.409,0,0.565l-9.255,9.257C12.082,18.003,11.979,18.042,11.877,18.042z
			 M9.129,15.271c-0.103,0-0.205-0.039-0.283-0.117c-0.156-0.156-0.156-0.41,0-0.566l9.252-9.253c0.156-0.156,0.41-0.156,0.566,0
			s0.156,0.409,0,0.565l-9.253,9.254C9.334,15.232,9.232,15.271,9.129,15.271z M6.391,12.522c-0.103,0-0.205-0.039-0.283-0.117
			c-0.156-0.156-0.156-0.409,0-0.565l9.253-9.255c0.156-0.156,0.41-0.156,0.566,0s0.156,0.409,0,0.565l-9.254,9.255
			C6.596,12.483,6.494,12.522,6.391,12.522z"/>
	</g>
</g>
</svg>
